# Blender 4.2.2 LTS
# www.blender.org
mtllib dyret.mtl
o Cube
v -3.859843 0.427967 1.260747
v -3.412844 2.320045 0.952106
v -3.859843 0.427967 -0.756608
v -3.323994 2.306836 -0.621904
v 0.810763 1.270826 0.760965
v 0.900139 3.320897 0.702730
v 0.787687 1.237881 -1.093257
v 0.939481 3.336805 -1.004379
v 2.033926 1.038859 0.960170
v 2.438806 3.319980 0.767698
v 2.090842 1.099393 -1.151822
v 2.457128 3.331110 -1.099616
v 1.226985 1.255898 -2.105547
v 1.520679 2.984231 -2.007793
v 2.094292 1.116981 -2.119414
v 2.327950 3.037726 -2.090426
v 1.168294 1.318854 1.612622
v 1.444772 3.172818 1.525237
v 1.992716 1.154525 1.649304
v 2.204440 3.037978 1.540702
v -4.893408 0.485070 1.092612
v -4.822545 2.088104 1.024187
v -4.893596 0.482454 -0.591449
v -4.816235 2.086738 -0.535138
v -3.828627 2.430263 0.085355
v -3.979863 0.447428 -1.430091
v -4.014034 2.106266 -1.084687
v -4.850221 0.483777 -1.380688
v -4.807565 1.974969 -1.298085
v -3.975157 0.466626 1.771351
v -4.003985 2.040507 1.940490
v -3.859843 0.427967 0.012192
v -4.861109 0.490925 1.842520
v -4.807565 1.948010 1.816239
v -3.859843 0.649133 2.029547
v 1.836442 5.268807 0.560804
v 1.867957 5.297443 -0.845495
v 2.768810 5.184762 0.659884
v 2.803847 5.216598 -0.903561
v 4.028300 3.686676 0.291640
v 3.465508 3.466991 0.578654
v 3.488443 3.446780 -0.911864
v 4.049993 3.700392 -0.559775
v 3.728531 4.952966 0.614807
v 4.184181 4.567337 0.313065
v 4.299716 4.650173 -0.581536
v 3.760789 4.982277 -0.824625
v 1.719553 -0.534060 -1.366138
v 1.967062 -1.070654 -1.496614
v 2.402606 -1.203159 -1.452577
v 2.652468 -1.011180 -1.130955
v 1.980071 -1.083589 -1.863178
v 1.730594 -0.545031 -2.004152
v 2.498583 -0.809970 -2.057096
v 2.415810 -1.207880 -1.890279
v 1.735332 -0.777485 1.190791
v 1.528451 -0.301503 1.051583
v 2.435667 -0.748756 0.935694
v 2.185483 -0.901456 1.186747
v 1.523740 -0.266362 1.527948
v 1.718964 -0.761109 1.438175
v 2.173864 -0.889876 1.465044
v 2.231834 -0.511940 1.612393
v -3.859843 -1.218670 1.260747
v -4.044975 -1.403802 1.445879
v -4.795456 -1.354543 1.483296
v -4.837496 -0.953663 1.398808
v -3.992313 -0.909132 1.941145
v -4.151382 -1.375208 1.811455
v -4.837230 -0.920116 1.860030
v -4.812630 -1.375208 1.811455
v -4.024004 -1.404924 -0.920769
v -3.859843 -1.240763 -0.756608
v -4.830045 -0.965809 -0.899302
v -4.823884 -1.379569 -0.966700
v -3.979960 -1.078830 -1.443789
v -4.120695 -1.383812 -1.344062
v -4.807399 -1.358136 -1.335756
v -4.838465 -0.967371 -1.388407
vn 0.9063 -0.0928 0.4122
vn -0.0950 0.0722 -0.9928
vn -0.9024 0.4306 -0.0144
vn 0.0658 0.0836 0.9943
vn 0.1753 -0.9845 0.0073
vn -0.2310 0.9729 -0.0082
vn 0.9857 -0.1679 0.0156
vn 0.9889 -0.1420 -0.0435
vn 0.9754 0.1787 0.1289
vn -0.1446 -0.9895 -0.0081
vn -0.0553 0.0426 -0.9976
vn -0.8767 0.1247 -0.4646
vn -0.0437 0.9475 -0.3168
vn -0.9030 -0.3509 -0.2479
vn -0.0548 -0.0571 -0.9969
vn -0.2829 -0.9591 0.0118
vn 0.9716 0.2314 -0.0504
vn -0.0224 0.0553 0.9982
vn 0.9767 -0.1324 0.1690
vn -0.8734 0.0996 0.4766
vn 0.0483 0.9667 0.2512
vn -0.9187 -0.2951 0.2626
vn 0.0155 -0.0738 -0.9972
vn -0.0931 -0.0542 0.9942
vn -0.9989 0.0462 -0.0019
vn -0.1544 0.9880 -0.0093
vn -0.0539 -0.9985 0.0007
vn -0.9994 -0.0230 -0.0273
vn 0.0896 0.1339 -0.9869
vn -0.0683 -0.9899 0.1240
vn -0.9985 0.0403 -0.0364
vn 0.8165 -0.0376 -0.5761
vn -0.1405 0.9753 -0.1704
vn 0.9848 0.0007 -0.1737
vn -0.0330 -0.9982 -0.0503
vn -0.0599 0.0069 -0.9982
vn -0.0295 -0.0468 0.9985
vn -0.1468 0.9723 0.1817
vn -0.0052 0.0670 0.9977
vn 0.3179 0.9481 -0.0000
vn -0.9985 0.0417 0.0342
vn 0.9794 0.0058 0.2021
vn -0.0347 -0.9994 0.0052
vn 0.9121 0.0035 -0.4099
vn -0.9993 -0.0248 0.0277
vn 0.0874 0.9959 0.0222
vn -0.0581 0.1108 -0.9921
vn -0.0631 0.0861 0.9943
vn 0.1361 0.0573 -0.9890
vn 0.1171 0.0005 0.9931
vn 0.2358 0.9715 0.0251
vn 0.9743 -0.2159 0.0646
vn 0.3875 -0.9218 0.0099
vn 0.5864 0.8064 0.0759
vn 0.4702 -0.0756 -0.8793
vn 0.4845 -0.1069 0.8682
vn 0.1266 -0.9919 0.0042
vn -0.3777 -0.4873 0.7873
vn -0.1699 -0.3349 -0.9268
vn 0.8774 -0.4538 -0.1559
vn -0.9076 -0.4197 -0.0117
vn -0.1071 -0.1054 0.9886
vn -0.2800 -0.4923 -0.8242
vn -0.1816 -0.2843 0.9414
vn 0.8484 -0.4333 0.3041
vn -0.9239 -0.3827 0.0003
vn -0.2696 -0.9623 0.0368
vn -0.1615 -0.3797 -0.9109
vn -0.0515 -0.1825 0.9819
vn 0.8462 -0.4193 0.3288
vn -0.9967 -0.0784 -0.0201
vn -0.0009 -0.0988 -0.9951
vn -0.1553 -0.3305 0.9309
vn -0.0584 -0.2048 -0.9771
vn -0.9989 -0.0460 -0.0105
vn 0.8280 -0.5045 -0.2448
vn -0.0050 -0.0984 0.9951
vt 0.375000 1.000000
vt 0.625000 1.000000
vt 0.375000 0.250000
vt 0.625000 0.250000
vt 0.625000 0.500000
vt 0.375000 0.500000
vt 0.625000 0.750000
vt 0.375000 0.750000
vt 0.125000 0.500000
vt 0.125000 0.750000
vt 0.875000 0.500000
vt 0.875000 0.750000
vt 0.375000 0.500000
vt 0.375000 0.000000
vt 0.625000 0.000000
vt 0.125000 0.500000
vt 0.125000 0.750000
vt 0.125000 0.750000
vt 0.403107 1.000000
vt 0.625000 0.684237
vt 0.625000 0.565763
vt 0.625000 0.565763
vt 0.625000 0.684237
vt 0.375000 0.750000
s 0
f 1/1/1 2/2/1 31/2/1 30/1/1
f 3/3/2 4/4/2 8/5/2 7/6/2
f 8/5/3 6/7/3 36/7/3 37/5/3
f 5/8/4 6/7/4 2/2/4 1/1/4
f 3/9/5 7/6/5 5/8/5 1/10/5
f 8/5/6 4/11/6 2/12/6 6/7/6
f 11/6/7 12/5/7 10/7/7 9/8/7
f 12/5/8 11/6/8 15/6/8 16/5/8
f 9/8/9 19/8/9 63/8/9 58/8/9
f 5/8/10 7/6/10 11/6/10 9/8/10
f 13/6/11 14/5/11 16/5/11 15/6/11
f 7/6/12 8/5/12 14/5/12 13/6/12
f 8/5/13 12/5/13 16/5/13 14/5/13
f 7/6/14 13/6/14 53/6/14 48/6/14
f 13/6/15 15/6/15 54/6/15 53/6/15
f 50/6/16 49/6/16 52/6/16 55/13/16
f 15/6/17 11/6/17 51/6/17 54/6/17
f 18/7/18 17/8/18 19/8/18 20/7/18
f 9/8/19 10/7/19 20/7/19 19/8/19
f 6/7/20 5/8/20 17/8/20 18/7/20
f 10/7/21 6/7/21 18/7/21 20/7/21
f 17/8/22 5/8/22 57/8/22 60/8/22
f 5/8/23 9/8/23 58/8/23 57/8/23
f 19/8/24 17/8/24 60/8/24 63/8/24
f 21/14/25 22/15/25 24/4/25 23/3/25
f 2/12/26 4/11/26 24/11/26 22/12/26
f 3/9/27 1/10/27 21/10/27 23/9/27
f 23/3/28 28/3/28 79/3/28 74/3/28
f 27/4/29 26/3/29 28/3/29 29/4/29
f 4/11/30 2/12/30 25/12/30 27/11/30
f 23/3/31 24/4/31 29/4/31 28/3/31
f 4/4/32 3/3/32 26/3/32 27/4/32
f 24/11/33 4/11/33 27/11/33 29/11/33
f 26/3/34 3/3/34 73/3/34 76/3/34
f 72/16/35 75/9/35 78/9/35 77/9/35
f 28/3/36 26/3/36 76/3/36 79/3/36
f 30/1/37 31/2/37 34/2/37 33/1/37
f 2/12/38 22/12/38 34/12/38 31/12/38
f 30/1/39 33/1/39 70/1/39 68/1/39
f 1/10/40 3/9/40 32/9/40 30/10/40
f 22/15/41 21/14/41 33/14/41 34/15/41
f 1/1/42 30/1/42 68/1/42 64/1/42
f 66/17/43 65/18/43 69/10/43 71/17/43
f 30/1/44 31/2/44 35/19/44 68/1/44
f 33/14/45 21/14/45 67/14/45 70/14/45
f 37/5/46 36/7/46 38/7/46 39/5/46
f 12/5/47 8/5/47 37/5/47 39/5/47
f 6/7/48 10/7/48 38/7/48 36/7/48
f 12/5/49 39/5/49 47/5/49 42/5/49
f 38/7/50 10/7/50 41/7/50 44/7/50
f 39/5/51 38/7/51 44/7/51 47/5/51
f 40/20/52 43/21/52 46/22/52 45/23/52
f 43/21/53 40/20/53 41/7/53 42/5/53
f 47/5/54 44/7/54 45/23/54 46/22/54
f 46/22/55 43/21/55 42/5/55 47/5/55
f 40/20/56 45/23/56 44/7/56 41/7/56
f 10/7/57 12/5/57 42/5/57 41/7/57
f 51/6/58 48/6/58 49/6/58 50/6/58
f 55/13/59 52/6/59 53/6/59 54/6/59
f 50/6/60 55/13/60 54/6/60 51/6/60
f 52/6/61 49/6/61 48/6/61 53/6/61
f 11/6/62 7/6/62 48/6/62 51/6/62
f 57/8/63 58/8/63 59/8/63 56/24/63
f 61/8/64 62/8/64 63/8/64 60/8/64
f 58/8/65 63/8/65 62/8/65 59/8/65
f 60/8/66 57/8/66 56/24/66 61/8/66
f 56/24/67 59/8/67 62/8/67 61/8/67
f 67/10/68 64/10/68 65/18/68 66/17/68
f 71/17/69 69/10/69 68/10/69 70/10/69
f 69/10/70 65/18/70 64/10/70 68/10/70
f 70/10/71 67/10/71 66/17/71 71/17/71
f 21/10/72 1/10/72 64/10/72 67/10/72
f 75/9/73 72/16/73 73/9/73 74/9/73
f 79/9/74 76/9/74 77/9/74 78/9/74
f 74/9/75 79/9/75 78/9/75 75/9/75
f 76/9/76 73/9/76 72/16/76 77/9/76
f 3/9/77 23/9/77 74/9/77 73/9/77
